<mxfile host="app.diagrams.net" modified="2023-05-12T00:59:50.618Z" agent="Mozilla/5.0 (Macintosh; Intel Mac OS X 10_15_7) AppleWebKit/537.36 (KHTML, like Gecko) Chrome/112.0.0.0 Safari/537.36" version="21.2.9" etag="TgTknvkyc6Kail5sJ6aC" type="github">
  <diagram name="페이지-1" id="ffhWawLeD6yEGVHmH_GZ">
    <mxGraphModel>
      <root>
        <mxCell id="0" />
        <mxCell id="1" parent="0" />
      </root>
    </mxGraphModel>
  </diagram>
</mxfile>
